<svg width="418" height="123" viewBox="0 0 418 123" fill="none" xmlns="http://www.w3.org/2000/svg">
<rect x="3.5" y="3.5" width="411" height="116" fill="#85E699" stroke="#FBCF00" stroke-width="7"/>
<path d="M84.5 42.2394C78.1 14.6394 30.8333 30.7394 8 42.2394C26.6667 42.2394 56.1 49.5394 24.5 78.7393C-7.1 107.939 25 109.239 45 106.239C97.1667 89.9059 194 64.1393 164 91.7393C126.5 126.239 253 95.2393 290.5 106.239C320.5 115.039 360.333 86.2393 376.5 70.7393C350.5 83.9059 306.1 103.039 336.5 74.2393C366.9 45.4393 308.5 54.9059 275.5 63.2393C253.667 73.4059 212 87.6393 220 63.2393C228 38.8393 178.667 53.0726 153 63.2393C132.833 67.7393 90.9 69.8394 84.5 42.2394Z" fill="#FF0000" fill-opacity="0.5"/>
<path d="M51.008 85.616H65.008V86.672H51.008V85.616ZM54.688 84.56H55.872V87.488H54.688V84.56ZM60.064 84.56H61.248V87.488H60.064V84.56ZM60.192 88.624V90.272H62.624V88.624H60.192ZM56.752 88.624V90.272H59.152V88.624H56.752ZM53.408 88.624V90.272H55.728V88.624H53.408ZM52.336 87.776H63.76V91.12H52.336V87.776ZM51.072 91.984H64.96V94.656H63.776V92.944H52.208V94.656H51.072V91.984ZM56.576 92.576L57.808 92.816C57.264 93.5307 56.5493 94.192 55.664 94.8C54.7893 95.408 53.728 95.936 52.48 96.384C52.4373 96.2987 52.3733 96.208 52.288 96.112C52.2027 96.0053 52.112 95.904 52.016 95.808C51.92 95.7013 51.8293 95.6213 51.744 95.568C52.928 95.184 53.9253 94.7253 54.736 94.192C55.5573 93.6587 56.1707 93.12 56.576 92.576ZM61.104 93.904H61.36L61.584 93.84L62.352 94.288C61.9253 95.0347 61.3707 95.696 60.688 96.272C60.0053 96.8373 59.2373 97.3227 58.384 97.728C57.5307 98.1227 56.624 98.448 55.664 98.704C54.7147 98.96 53.76 99.1627 52.8 99.312C52.7467 99.1627 52.6667 98.9813 52.56 98.768C52.4533 98.5653 52.352 98.4 52.256 98.272C53.1627 98.176 54.064 98.016 54.96 97.792C55.856 97.568 56.704 97.2853 57.504 96.944C58.3147 96.592 59.0293 96.1813 59.648 95.712C60.2667 95.232 60.752 94.688 61.104 94.08V93.904ZM54.144 95.488L54.88 94.816C55.296 94.9653 55.728 95.152 56.176 95.376C56.624 95.5893 57.0453 95.8133 57.44 96.048C57.8453 96.2827 58.176 96.5013 58.432 96.704L57.648 97.44C57.4027 97.2267 57.0827 96.9973 56.688 96.752C56.2933 96.5067 55.872 96.272 55.424 96.048C54.9867 95.824 54.56 95.6373 54.144 95.488ZM55.888 93.904H61.44V94.784H55.008L55.888 93.904ZM72.784 85.568C72.7627 85.7173 72.736 85.8773 72.704 86.048C72.672 86.208 72.64 86.368 72.608 86.528C72.5653 86.7093 72.5173 86.9653 72.464 87.296C72.4107 87.6267 72.3467 87.9787 72.272 88.352C72.208 88.7147 72.1387 89.0667 72.064 89.408C71.9467 89.856 71.808 90.368 71.648 90.944C71.4987 91.5093 71.3173 92.1173 71.104 92.768C70.9013 93.408 70.672 94.064 70.416 94.736C70.16 95.3973 69.8773 96.0533 69.568 96.704C69.2587 97.3547 68.9227 97.9733 68.56 98.56L67.264 98.032C67.6267 97.552 67.968 97.008 68.288 96.4C68.608 95.792 68.9013 95.1627 69.168 94.512C69.4347 93.8507 69.6747 93.2 69.888 92.56C70.1013 91.92 70.2827 91.328 70.432 90.784C70.592 90.2293 70.7147 89.7547 70.8 89.36C70.9493 88.7307 71.072 88.0693 71.168 87.376C71.264 86.6827 71.312 86.032 71.312 85.424L72.784 85.568ZM78.288 87.424C78.544 87.744 78.8107 88.1493 79.088 88.64C79.376 89.1307 79.6533 89.648 79.92 90.192C80.1973 90.736 80.448 91.264 80.672 91.776C80.9067 92.288 81.088 92.7307 81.216 93.104L79.984 93.696C79.8667 93.28 79.7013 92.8107 79.488 92.288C79.2853 91.7653 79.0507 91.2373 78.784 90.704C78.528 90.16 78.256 89.648 77.968 89.168C77.6907 88.6773 77.408 88.272 77.12 87.952L78.288 87.424ZM67.024 89.088C67.28 89.0987 67.52 89.104 67.744 89.104C67.968 89.104 68.208 89.0987 68.464 89.088C68.6987 89.0773 69.0027 89.0613 69.376 89.04C69.76 89.008 70.1707 88.976 70.608 88.944C71.0453 88.9013 71.4827 88.864 71.92 88.832C72.3573 88.7893 72.7573 88.7573 73.12 88.736C73.4827 88.704 73.7707 88.688 73.984 88.688C74.464 88.688 74.896 88.768 75.28 88.928C75.6747 89.0773 75.9893 89.3493 76.224 89.744C76.4693 90.128 76.592 90.6827 76.592 91.408C76.592 92.0373 76.56 92.72 76.496 93.456C76.432 94.1813 76.3307 94.8747 76.192 95.536C76.064 96.1867 75.888 96.736 75.664 97.184C75.4187 97.7173 75.0987 98.0693 74.704 98.24C74.3093 98.4213 73.8507 98.512 73.328 98.512C73.0187 98.512 72.688 98.4853 72.336 98.432C71.9947 98.3893 71.696 98.3413 71.44 98.288L71.232 96.944C71.456 97.0187 71.6907 97.0827 71.936 97.136C72.1813 97.1787 72.416 97.216 72.64 97.248C72.864 97.2693 73.0453 97.28 73.184 97.28C73.4827 97.28 73.7493 97.232 73.984 97.136C74.2187 97.0293 74.4213 96.8 74.592 96.448C74.7627 96.0853 74.9013 95.632 75.008 95.088C75.1253 94.544 75.2107 93.9627 75.264 93.344C75.3173 92.7253 75.344 92.128 75.344 91.552C75.344 91.0613 75.2747 90.6933 75.136 90.448C74.9973 90.2027 74.8 90.0373 74.544 89.952C74.288 89.8667 73.9893 89.824 73.648 89.824C73.3813 89.824 73.0187 89.8453 72.56 89.888C72.1013 89.92 71.6107 89.9627 71.088 90.016C70.5653 90.0587 70.08 90.1067 69.632 90.16C69.1947 90.2133 68.8533 90.2507 68.608 90.272C68.416 90.2933 68.176 90.3253 67.888 90.368C67.6107 90.4 67.3707 90.432 67.168 90.464L67.024 89.088ZM78.48 85.104C78.6187 85.2853 78.7627 85.5093 78.912 85.776C79.072 86.032 79.232 86.2987 79.392 86.576C79.552 86.8427 79.6853 87.0827 79.792 87.296L78.912 87.68C78.816 87.4667 78.6933 87.2267 78.544 86.96C78.3947 86.6933 78.24 86.4267 78.08 86.16C77.92 85.8933 77.7653 85.6587 77.616 85.456L78.48 85.104ZM80.24 84.448C80.3787 84.6507 80.5333 84.8853 80.704 85.152C80.8747 85.4187 81.04 85.6853 81.2 85.952C81.36 86.208 81.488 86.4373 81.584 86.64L80.72 87.024C80.5493 86.672 80.3413 86.2933 80.096 85.888C79.8507 85.472 79.616 85.1147 79.392 84.816L80.24 84.448ZM89.056 84.624H90.24V89.168C90.24 89.4347 90.3147 89.6107 90.464 89.696C90.6133 89.7813 90.9493 89.824 91.472 89.824C91.568 89.824 91.728 89.824 91.952 89.824C92.1867 89.824 92.4533 89.824 92.752 89.824C93.0507 89.824 93.3547 89.824 93.664 89.824C93.9733 89.824 94.2507 89.824 94.496 89.824C94.752 89.824 94.944 89.824 95.072 89.824C95.3707 89.824 95.5893 89.776 95.728 89.68C95.8773 89.584 95.984 89.392 96.048 89.104C96.112 88.8053 96.16 88.3733 96.192 87.808C96.32 87.8933 96.4907 87.9787 96.704 88.064C96.928 88.1493 97.1253 88.208 97.296 88.24C97.2427 88.944 97.1467 89.4933 97.008 89.888C96.88 90.272 96.6667 90.5387 96.368 90.688C96.08 90.8373 95.6693 90.912 95.136 90.912C95.0613 90.912 94.896 90.912 94.64 90.912C94.384 90.912 94.0907 90.912 93.76 90.912C93.4293 90.912 93.0987 90.912 92.768 90.912C92.4373 90.912 92.144 90.912 91.888 90.912C91.6427 90.912 91.4827 90.912 91.408 90.912C90.7893 90.912 90.3093 90.864 89.968 90.768C89.6267 90.672 89.3867 90.496 89.248 90.24C89.12 89.984 89.056 89.6267 89.056 89.168V84.624ZM95.392 85.504L96.304 86.4C95.7387 86.624 95.0933 86.8373 94.368 87.04C93.6533 87.2427 92.912 87.4293 92.144 87.6C91.376 87.7707 90.6347 87.9253 89.92 88.064C89.888 87.936 89.8347 87.7867 89.76 87.616C89.6853 87.4347 89.6107 87.28 89.536 87.152C90.2293 87.0133 90.9387 86.8587 91.664 86.688C92.3893 86.5067 93.0773 86.3147 93.728 86.112C94.3893 85.9093 94.944 85.7067 95.392 85.504ZM89.056 92.256H96.592V99.2H95.408V93.28H90.192V99.264H89.056V92.256ZM89.648 94.88H95.84V95.856H89.648V94.88ZM89.6 97.536H95.872V98.528H89.6V97.536ZM82.496 93.04C82.976 92.9227 83.52 92.7787 84.128 92.608C84.736 92.4373 85.376 92.256 86.048 92.064C86.7307 91.8613 87.4133 91.6587 88.096 91.456L88.24 92.576C87.3013 92.864 86.3573 93.152 85.408 93.44C84.4587 93.728 83.6053 93.984 82.848 94.208L82.496 93.04ZM82.704 87.792H88.016V88.928H82.704V87.792ZM84.944 84.56H86.112V97.856C86.112 98.1973 86.0693 98.4587 85.984 98.64C85.9093 98.8213 85.7653 98.96 85.552 99.056C85.3387 99.1413 85.0613 99.2 84.72 99.232C84.3787 99.264 83.9413 99.2747 83.408 99.264C83.3867 99.1147 83.3387 98.9333 83.264 98.72C83.1893 98.5067 83.1147 98.32 83.04 98.16C83.4027 98.1707 83.7333 98.176 84.032 98.176C84.3307 98.176 84.5333 98.176 84.64 98.176C84.7467 98.1653 84.8213 98.1387 84.864 98.096C84.9173 98.0533 84.944 97.9787 84.944 97.872V84.56ZM103.44 85.536C103.397 85.8027 103.365 86.0747 103.344 86.352C103.323 86.6187 103.307 86.8853 103.296 87.152C103.275 87.6 103.253 88.1547 103.232 88.816C103.211 89.4773 103.189 90.1813 103.168 90.928C103.147 91.664 103.131 92.4 103.12 93.136C103.109 93.872 103.104 94.5333 103.104 95.12C103.104 95.7067 103.216 96.176 103.44 96.528C103.664 96.88 103.973 97.1307 104.368 97.28C104.763 97.4293 105.216 97.504 105.728 97.504C106.453 97.504 107.109 97.4133 107.696 97.232C108.283 97.04 108.805 96.7893 109.264 96.48C109.723 96.16 110.128 95.8027 110.48 95.408C110.843 95.0133 111.168 94.608 111.456 94.192L112.368 95.28C112.091 95.664 111.749 96.064 111.344 96.48C110.949 96.8853 110.48 97.264 109.936 97.616C109.392 97.968 108.763 98.256 108.048 98.48C107.344 98.704 106.555 98.816 105.68 98.816C104.923 98.816 104.251 98.6987 103.664 98.464C103.077 98.2293 102.619 97.8507 102.288 97.328C101.957 96.8053 101.792 96.112 101.792 95.248C101.792 94.768 101.797 94.24 101.808 93.664C101.819 93.0773 101.835 92.4747 101.856 91.856C101.877 91.2373 101.893 90.6347 101.904 90.048C101.915 89.4507 101.925 88.9013 101.936 88.4C101.947 87.8987 101.952 87.4827 101.952 87.152C101.952 86.8533 101.941 86.5653 101.92 86.288C101.899 86.0107 101.867 85.7547 101.824 85.52L103.44 85.536ZM121.376 90.256H122.672V97.712C122.672 98.096 122.613 98.3893 122.496 98.592C122.389 98.7947 122.192 98.9493 121.904 99.056C121.616 99.152 121.232 99.2107 120.752 99.232C120.283 99.2533 119.691 99.264 118.976 99.264C118.955 99.0827 118.901 98.8693 118.816 98.624C118.731 98.3893 118.64 98.1813 118.544 98C118.907 98.0107 119.253 98.0213 119.584 98.032C119.925 98.0427 120.219 98.0427 120.464 98.032C120.72 98.032 120.896 98.032 120.992 98.032C121.141 98.0213 121.243 97.9947 121.296 97.952C121.349 97.9093 121.376 97.824 121.376 97.696V90.256ZM117.744 92.384L118.976 92.72C118.72 93.3707 118.411 94.0107 118.048 94.64C117.696 95.2693 117.312 95.856 116.896 96.4C116.491 96.944 116.08 97.4187 115.664 97.824C115.589 97.7493 115.483 97.6693 115.344 97.584C115.205 97.488 115.061 97.3973 114.912 97.312C114.773 97.216 114.656 97.1467 114.56 97.104C115.211 96.5387 115.813 95.84 116.368 95.008C116.933 94.1653 117.392 93.2907 117.744 92.384ZM124.944 92.88L126.048 92.416C126.443 92.9067 126.827 93.4453 127.2 94.032C127.584 94.6187 127.931 95.1947 128.24 95.76C128.549 96.3253 128.784 96.8373 128.944 97.296L127.744 97.84C127.605 97.392 127.387 96.88 127.088 96.304C126.789 95.728 126.453 95.1413 126.08 94.544C125.707 93.936 125.328 93.3813 124.944 92.88ZM116.384 85.744H127.648V86.928H116.384V85.744ZM114.96 89.632H129.056V90.816H114.96V89.632ZM140.032 85.328C140.032 85.3813 140.021 85.4773 140 85.616C139.989 85.7547 139.979 85.8933 139.968 86.032C139.968 86.16 139.963 86.2613 139.952 86.336C139.941 86.5387 139.936 86.816 139.936 87.168C139.936 87.52 139.936 87.904 139.936 88.32C139.936 88.736 139.936 89.1573 139.936 89.584C139.947 90.0107 139.952 90.4107 139.952 90.784C139.963 91.1573 139.968 91.472 139.968 91.728L138.736 91.12C138.736 90.9707 138.736 90.7467 138.736 90.448C138.736 90.1387 138.736 89.7867 138.736 89.392C138.736 88.9867 138.731 88.5867 138.72 88.192C138.72 87.7973 138.715 87.4347 138.704 87.104C138.693 86.7733 138.683 86.5173 138.672 86.336C138.661 86.1227 138.645 85.92 138.624 85.728C138.603 85.5253 138.587 85.392 138.576 85.328H140.032ZM131.536 87.552C131.973 87.552 132.469 87.5467 133.024 87.536C133.579 87.5147 134.165 87.4933 134.784 87.472C135.413 87.4507 136.048 87.4347 136.688 87.424C137.328 87.4133 137.941 87.4027 138.528 87.392C139.125 87.3813 139.675 87.376 140.176 87.376C140.656 87.376 141.136 87.376 141.616 87.376C142.096 87.376 142.544 87.376 142.96 87.376C143.387 87.376 143.76 87.3813 144.08 87.392C144.411 87.392 144.672 87.392 144.864 87.392L144.848 88.576C144.4 88.5547 143.797 88.5387 143.04 88.528C142.293 88.5067 141.333 88.496 140.16 88.496C139.467 88.496 138.741 88.5067 137.984 88.528C137.237 88.5387 136.485 88.5547 135.728 88.576C134.971 88.5973 134.235 88.6293 133.52 88.672C132.816 88.704 132.165 88.7413 131.568 88.784L131.536 87.552ZM139.936 92.208C139.936 92.912 139.829 93.504 139.616 93.984C139.413 94.464 139.125 94.8213 138.752 95.056C138.389 95.2907 137.963 95.408 137.472 95.408C137.141 95.408 136.816 95.3547 136.496 95.248C136.187 95.1307 135.904 94.96 135.648 94.736C135.403 94.5013 135.205 94.2187 135.056 93.888C134.917 93.5467 134.848 93.1627 134.848 92.736C134.848 92.2027 134.976 91.728 135.232 91.312C135.488 90.896 135.829 90.5653 136.256 90.32C136.693 90.0747 137.163 89.952 137.664 89.952C138.293 89.952 138.811 90.096 139.216 90.384C139.632 90.6613 139.947 91.0453 140.16 91.536C140.373 92.016 140.48 92.5653 140.48 93.184C140.48 93.7173 140.4 94.2613 140.24 94.816C140.091 95.3707 139.835 95.904 139.472 96.416C139.12 96.928 138.635 97.3973 138.016 97.824C137.408 98.24 136.635 98.5867 135.696 98.864L134.624 97.808C135.349 97.6373 136 97.4187 136.576 97.152C137.152 96.8853 137.637 96.56 138.032 96.176C138.427 95.792 138.725 95.344 138.928 94.832C139.141 94.32 139.248 93.7333 139.248 93.072C139.248 92.3467 139.093 91.824 138.784 91.504C138.475 91.184 138.101 91.024 137.664 91.024C137.387 91.024 137.125 91.0933 136.88 91.232C136.635 91.36 136.432 91.552 136.272 91.808C136.123 92.064 136.048 92.368 136.048 92.72C136.048 93.2213 136.208 93.6107 136.528 93.888C136.859 94.1653 137.243 94.304 137.68 94.304C138.011 94.304 138.293 94.2133 138.528 94.032C138.763 93.84 138.928 93.5573 139.024 93.184C139.131 92.8 139.141 92.3253 139.056 91.76L139.936 92.208ZM156.4 84.464H161.456V85.568H157.584V94.816H156.4V84.464ZM166.8 94.176H167.984V97.44C167.984 97.664 168.043 97.808 168.16 97.872C168.288 97.936 168.571 97.968 169.008 97.968C169.115 97.968 169.296 97.968 169.552 97.968C169.819 97.968 170.112 97.968 170.432 97.968C170.752 97.968 171.051 97.968 171.328 97.968C171.616 97.968 171.824 97.968 171.952 97.968C172.208 97.968 172.395 97.9253 172.512 97.84C172.64 97.744 172.731 97.5573 172.784 97.28C172.837 96.992 172.875 96.5653 172.896 96C172.992 96.0533 173.104 96.112 173.232 96.176C173.36 96.24 173.493 96.2933 173.632 96.336C173.771 96.3787 173.888 96.416 173.984 96.448C173.941 97.152 173.856 97.6907 173.728 98.064C173.611 98.4373 173.419 98.6933 173.152 98.832C172.896 98.9813 172.528 99.056 172.048 99.056C171.973 99.056 171.829 99.056 171.616 99.056C171.413 99.056 171.173 99.056 170.896 99.056C170.619 99.056 170.341 99.056 170.064 99.056C169.787 99.056 169.541 99.056 169.328 99.056C169.125 99.056 168.992 99.056 168.928 99.056C168.363 99.056 167.925 99.008 167.616 98.912C167.307 98.8267 167.093 98.6613 166.976 98.416C166.859 98.1813 166.8 97.856 166.8 97.44V94.176ZM167.856 92.992L168.672 92.272C169.067 92.4533 169.461 92.6773 169.856 92.944C170.261 93.2107 170.629 93.4827 170.96 93.76C171.301 94.0373 171.579 94.304 171.792 94.56L170.912 95.376C170.72 95.12 170.459 94.848 170.128 94.56C169.797 94.2613 169.435 93.9787 169.04 93.712C168.645 93.4347 168.251 93.1947 167.856 92.992ZM173.52 94.496L174.544 94C174.949 94.3627 175.339 94.768 175.712 95.216C176.096 95.664 176.443 96.1173 176.752 96.576C177.061 97.0347 177.291 97.456 177.44 97.84L176.336 98.416C176.197 98.032 175.979 97.6107 175.68 97.152C175.392 96.6933 175.061 96.2347 174.688 95.776C174.315 95.3067 173.925 94.88 173.52 94.496ZM164.624 94.176L165.696 94.512C165.504 95.2587 165.237 95.9947 164.896 96.72C164.565 97.4347 164.107 98.032 163.52 98.512L162.512 97.872C163.077 97.4453 163.531 96.896 163.872 96.224C164.213 95.552 164.464 94.8693 164.624 94.176ZM163.072 86.528H176.976V87.648H163.072V86.528ZM169.36 84.56H170.576V86.912H169.36V84.56ZM165.04 86.976H166.224V90.032C166.224 90.3413 166.304 90.56 166.464 90.688C166.624 90.816 166.939 90.88 167.408 90.88C167.547 90.88 167.771 90.88 168.08 90.88C168.389 90.88 168.747 90.88 169.152 90.88C169.557 90.88 169.979 90.88 170.416 90.88C170.864 90.88 171.296 90.88 171.712 90.88C172.128 90.88 172.491 90.88 172.8 90.88C173.12 90.88 173.355 90.88 173.504 90.88C173.739 90.88 174.005 90.88 174.304 90.88C174.603 90.8693 174.891 90.8533 175.168 90.832C175.456 90.8107 175.685 90.7893 175.856 90.768C175.867 90.928 175.888 91.12 175.92 91.344C175.952 91.568 175.979 91.7493 176 91.888C175.883 91.92 175.691 91.9413 175.424 91.952C175.168 91.9627 174.875 91.9733 174.544 91.984C174.224 91.9947 173.899 92 173.568 92C173.419 92 173.179 92 172.848 92C172.528 92 172.155 92 171.728 92C171.301 92 170.859 92 170.4 92C169.952 92 169.525 92 169.12 92C168.715 92 168.368 92 168.08 92C167.792 92 167.605 92 167.52 92C166.912 92 166.427 91.936 166.064 91.808C165.701 91.68 165.44 91.472 165.28 91.184C165.12 90.896 165.04 90.5013 165.04 90V86.976ZM193.584 96.784C193.157 97.2107 192.699 97.5413 192.208 97.776C191.717 98 191.195 98.112 190.64 98.112C190.117 98.112 189.691 97.9413 189.36 97.6C189.029 97.2587 188.864 96.7573 188.864 96.096C188.864 95.648 188.896 95.1627 188.96 94.64C189.024 94.1173 189.093 93.584 189.168 93.04C189.243 92.4853 189.312 91.9627 189.376 91.472C189.44 90.9707 189.472 90.5227 189.472 90.128C189.472 89.6693 189.36 89.3387 189.136 89.136C188.912 88.9227 188.592 88.816 188.176 88.816C187.803 88.816 187.387 88.928 186.928 89.152C186.469 89.3653 186 89.6587 185.52 90.032C185.04 90.3947 184.571 90.8053 184.112 91.264C183.653 91.712 183.232 92.16 182.848 92.608L182.88 91.024C183.083 90.8107 183.339 90.56 183.648 90.272C183.968 89.984 184.32 89.6853 184.704 89.376C185.099 89.0667 185.515 88.7787 185.952 88.512C186.389 88.2453 186.821 88.032 187.248 87.872C187.685 87.712 188.101 87.632 188.496 87.632C188.997 87.632 189.413 87.7227 189.744 87.904C190.075 88.0747 190.32 88.3253 190.48 88.656C190.64 88.976 190.72 89.3493 190.72 89.776C190.72 90.1707 190.688 90.6293 190.624 91.152C190.571 91.664 190.501 92.1973 190.416 92.752C190.341 93.3067 190.272 93.8453 190.208 94.368C190.155 94.8907 190.128 95.3547 190.128 95.76C190.128 96.0267 190.192 96.256 190.32 96.448C190.459 96.64 190.672 96.736 190.96 96.736C191.344 96.736 191.739 96.624 192.144 96.4C192.56 96.1653 192.971 95.8347 193.376 95.408L193.584 96.784ZM182.832 89.136C182.704 89.1467 182.507 89.1733 182.24 89.216C181.984 89.248 181.691 89.2853 181.36 89.328C181.029 89.3707 180.693 89.4187 180.352 89.472C180.011 89.5147 179.691 89.5573 179.392 89.6L179.264 88.288C179.435 88.2987 179.6 88.304 179.76 88.304C179.931 88.2933 180.112 88.2827 180.304 88.272C180.528 88.2613 180.8 88.24 181.12 88.208C181.451 88.1653 181.792 88.1227 182.144 88.08C182.507 88.0267 182.843 87.9733 183.152 87.92C183.472 87.856 183.723 87.792 183.904 87.728L184.368 88.288C184.272 88.416 184.165 88.576 184.048 88.768C183.931 88.9493 183.813 89.136 183.696 89.328C183.579 89.52 183.477 89.6907 183.392 89.84L182.896 92.016C182.715 92.304 182.491 92.6453 182.224 93.04C181.957 93.4347 181.675 93.8507 181.376 94.288C181.088 94.7147 180.795 95.1413 180.496 95.568C180.197 95.984 179.925 96.368 179.68 96.72L178.864 95.616C179.067 95.3707 179.301 95.072 179.568 94.72C179.845 94.3573 180.133 93.968 180.432 93.552C180.741 93.136 181.04 92.7307 181.328 92.336C181.627 91.9307 181.888 91.5573 182.112 91.216C182.347 90.8747 182.523 90.5973 182.64 90.384L182.704 89.568L182.832 89.136ZM182.688 86.48C182.688 86.2987 182.683 86.1067 182.672 85.904C182.672 85.7013 182.656 85.4987 182.624 85.296L184.128 85.344C184.085 85.5573 184.032 85.8933 183.968 86.352C183.904 86.8 183.84 87.3333 183.776 87.952C183.723 88.5707 183.664 89.2213 183.6 89.904C183.547 90.5867 183.504 91.264 183.472 91.936C183.44 92.5973 183.424 93.2107 183.424 93.776C183.424 94.256 183.424 94.704 183.424 95.12C183.424 95.5253 183.429 95.9307 183.44 96.336C183.451 96.7307 183.467 97.1627 183.488 97.632C183.499 97.7707 183.509 97.9307 183.52 98.112C183.531 98.2933 183.547 98.4587 183.568 98.608H182.176C182.197 98.4587 182.208 98.2933 182.208 98.112C182.219 97.9413 182.224 97.792 182.224 97.664C182.235 97.152 182.24 96.6987 182.24 96.304C182.24 95.9093 182.24 95.504 182.24 95.088C182.251 94.6613 182.261 94.1547 182.272 93.568C182.272 93.3333 182.283 93.0133 182.304 92.608C182.325 92.192 182.352 91.7387 182.384 91.248C182.416 90.7467 182.448 90.24 182.48 89.728C182.512 89.216 182.544 88.736 182.576 88.288C182.608 87.8293 182.635 87.44 182.656 87.12C182.677 86.8 182.688 86.5867 182.688 86.48ZM201.088 85.408C201.035 85.5893 200.981 85.808 200.928 86.064C200.875 86.32 200.832 86.528 200.8 86.688C200.725 87.072 200.635 87.52 200.528 88.032C200.432 88.5333 200.32 89.0613 200.192 89.616C200.075 90.1707 199.941 90.7147 199.792 91.248C199.653 91.8133 199.483 92.432 199.28 93.104C199.077 93.7653 198.864 94.432 198.64 95.104C198.416 95.776 198.187 96.4107 197.952 97.008C197.717 97.6053 197.499 98.128 197.296 98.576L195.888 98.096C196.133 97.68 196.379 97.184 196.624 96.608C196.88 96.0213 197.125 95.3973 197.36 94.736C197.605 94.0747 197.829 93.4187 198.032 92.768C198.245 92.1067 198.427 91.4987 198.576 90.944C198.683 90.5707 198.784 90.176 198.88 89.76C198.976 89.344 199.067 88.9387 199.152 88.544C199.237 88.1387 199.307 87.7707 199.36 87.44C199.424 87.0987 199.472 86.8213 199.504 86.608C199.536 86.384 199.557 86.1493 199.568 85.904C199.579 85.6587 199.573 85.4507 199.552 85.28L201.088 85.408ZM197.536 88.08C198.133 88.08 198.773 88.0533 199.456 88C200.149 87.936 200.853 87.8453 201.568 87.728C202.283 87.6107 202.971 87.4667 203.632 87.296V88.56C202.971 88.7093 202.277 88.8373 201.552 88.944C200.827 89.0507 200.112 89.136 199.408 89.2C198.715 89.2533 198.085 89.28 197.52 89.28C197.168 89.28 196.843 89.2747 196.544 89.264C196.245 89.2427 195.952 89.2267 195.664 89.216L195.616 87.968C196 88.0107 196.341 88.0427 196.64 88.064C196.949 88.0747 197.248 88.08 197.536 88.08ZM202.592 90.288C203.019 90.2453 203.483 90.2133 203.984 90.192C204.496 90.16 205.008 90.144 205.52 90.144C205.989 90.144 206.459 90.1547 206.928 90.176C207.408 90.1973 207.861 90.2347 208.288 90.288L208.256 91.504C207.851 91.4507 207.419 91.408 206.96 91.376C206.501 91.3333 206.037 91.312 205.568 91.312C205.067 91.312 204.565 91.328 204.064 91.36C203.573 91.3813 203.083 91.4187 202.592 91.472V90.288ZM202.928 94.176C202.864 94.432 202.811 94.6827 202.768 94.928C202.725 95.1733 202.704 95.4027 202.704 95.616C202.704 95.808 202.736 95.9947 202.8 96.176C202.875 96.3467 203.008 96.5013 203.2 96.64C203.392 96.7787 203.664 96.8907 204.016 96.976C204.379 97.0613 204.843 97.104 205.408 97.104C205.931 97.104 206.459 97.0773 206.992 97.024C207.525 96.9707 208.037 96.8907 208.528 96.784L208.48 98.08C208.053 98.144 207.579 98.1973 207.056 98.24C206.533 98.2827 205.979 98.304 205.392 98.304C204.133 98.304 203.168 98.112 202.496 97.728C201.824 97.3333 201.488 96.7413 201.488 95.952C201.488 95.6427 201.509 95.3333 201.552 95.024C201.605 94.7147 201.664 94.3947 201.728 94.064L202.928 94.176ZM213.936 90.88V96.544H212.768V92H210.736V90.88H213.936ZM213.936 96.048C214.309 96.6347 214.843 97.072 215.536 97.36C216.229 97.648 217.045 97.8133 217.984 97.856C218.432 97.8667 218.976 97.8773 219.616 97.888C220.256 97.888 220.928 97.888 221.632 97.888C222.336 97.8773 223.019 97.8613 223.68 97.84C224.341 97.8187 224.912 97.792 225.392 97.76C225.349 97.8453 225.301 97.9573 225.248 98.096C225.195 98.2347 225.147 98.3787 225.104 98.528C225.061 98.6773 225.029 98.816 225.008 98.944C224.56 98.9547 224.027 98.9653 223.408 98.976C222.8 98.9973 222.165 99.008 221.504 99.008C220.843 99.0187 220.203 99.0187 219.584 99.008C218.965 98.9973 218.437 98.9867 218 98.976C216.944 98.9333 216.043 98.7627 215.296 98.464C214.549 98.1653 213.925 97.7013 213.424 97.072C213.072 97.4133 212.709 97.7547 212.336 98.096C211.973 98.448 211.595 98.8 211.2 99.152L210.576 97.968C210.928 97.712 211.307 97.4187 211.712 97.088C212.128 96.7467 212.517 96.4 212.88 96.048H213.936ZM210.896 85.632L211.808 84.96C212.139 85.2053 212.469 85.4827 212.8 85.792C213.141 86.1013 213.451 86.4107 213.728 86.72C214.016 87.0293 214.24 87.3173 214.4 87.584L213.424 88.336C213.275 88.0693 213.061 87.776 212.784 87.456C212.507 87.1253 212.203 86.8053 211.872 86.496C211.552 86.176 211.227 85.888 210.896 85.632ZM215.472 90.064H224.144V91.024H216.544V97.024H215.472V90.064ZM219.36 87.376H222.72V88.208H220.256V90.48H219.36V87.376ZM216.72 85.12H223.328V90.384H222.224V86.048H217.792V90.384H216.72V85.12ZM218.448 92.064H222.064V95.456H218.448V94.624H221.12V92.912H218.448V92.064ZM223.456 90.064H224.56V95.824C224.56 96.1013 224.528 96.32 224.464 96.48C224.4 96.64 224.267 96.7627 224.064 96.848C223.872 96.9227 223.616 96.9707 223.296 96.992C222.976 97.0133 222.576 97.024 222.096 97.024C222.075 96.8747 222.032 96.7093 221.968 96.528C221.915 96.3467 221.851 96.1813 221.776 96.032C222.107 96.0427 222.405 96.0533 222.672 96.064C222.949 96.064 223.131 96.0587 223.216 96.048C223.376 96.048 223.456 95.9733 223.456 95.824V90.064ZM217.888 92.064H218.832V96.096H217.888V92.064ZM228.08 86.976H240.032V88.176H228.08V86.976ZM226.848 91.2H241.216V92.4H226.848V91.2ZM233.328 84.544H234.592V91.856H233.328V84.544ZM232.032 91.968L233.424 92.352C233.147 92.9707 232.843 93.6213 232.512 94.304C232.192 94.9867 231.867 95.6533 231.536 96.304C231.205 96.944 230.88 97.5093 230.56 98L229.456 97.632C229.669 97.248 229.899 96.8213 230.144 96.352C230.389 95.8827 230.624 95.392 230.848 94.88C231.083 94.368 231.301 93.8613 231.504 93.36C231.717 92.8587 231.893 92.3947 232.032 91.968ZM227.408 97.344C228.165 97.3227 229.013 97.296 229.952 97.264C230.901 97.2213 231.904 97.1787 232.96 97.136C234.027 97.0827 235.115 97.0347 236.224 96.992C237.344 96.9387 238.453 96.8853 239.552 96.832L239.504 98.016C238.064 98.0907 236.619 98.1653 235.168 98.24C233.728 98.3253 232.357 98.3947 231.056 98.448C229.755 98.512 228.597 98.5653 227.584 98.608L227.408 97.344ZM236.24 94.224L237.344 93.696C237.824 94.2187 238.304 94.784 238.784 95.392C239.264 96 239.701 96.6027 240.096 97.2C240.501 97.7867 240.821 98.3147 241.056 98.784L239.872 99.408C239.648 98.9387 239.339 98.4 238.944 97.792C238.549 97.184 238.112 96.5707 237.632 95.952C237.163 95.3227 236.699 94.7467 236.24 94.224ZM247.6 99.376H242.544V98.272H246.416V89.024H247.6V99.376ZM265.36 85.344C265.296 85.664 265.211 86.0427 265.104 86.48C265.008 86.9067 264.848 87.392 264.624 87.936C264.432 88.416 264.192 88.912 263.904 89.424C263.627 89.936 263.328 90.4 263.008 90.816C263.211 90.688 263.44 90.5813 263.696 90.496C263.952 90.4 264.213 90.3307 264.48 90.288C264.757 90.2453 265.008 90.224 265.232 90.224C265.851 90.224 266.373 90.4 266.8 90.752C267.227 91.0933 267.44 91.5947 267.44 92.256C267.44 92.4587 267.44 92.72 267.44 93.04C267.44 93.3493 267.44 93.68 267.44 94.032C267.451 94.3733 267.461 94.7093 267.472 95.04C267.483 95.3707 267.488 95.6587 267.488 95.904H266.256C266.267 95.6907 266.277 95.44 266.288 95.152C266.299 94.864 266.304 94.56 266.304 94.24C266.315 93.92 266.315 93.616 266.304 93.328C266.304 93.04 266.304 92.7947 266.304 92.592C266.304 92.1227 266.16 91.7813 265.872 91.568C265.595 91.344 265.243 91.232 264.816 91.232C264.315 91.232 263.819 91.344 263.328 91.568C262.848 91.7813 262.427 92.0587 262.064 92.4C261.829 92.624 261.595 92.88 261.36 93.168C261.136 93.4453 260.885 93.744 260.608 94.064L259.52 93.264C260.288 92.5173 260.928 91.8187 261.44 91.168C261.952 90.5173 262.368 89.9147 262.688 89.36C263.008 88.7947 263.259 88.288 263.44 87.84C263.611 87.392 263.749 86.944 263.856 86.496C263.963 86.0373 264.027 85.616 264.048 85.232L265.36 85.344ZM259.888 87.072C260.315 87.1253 260.779 87.168 261.28 87.2C261.781 87.232 262.219 87.248 262.592 87.248C263.307 87.248 264.075 87.232 264.896 87.2C265.717 87.1573 266.544 87.0987 267.376 87.024C268.219 86.9493 269.019 86.8427 269.776 86.704L269.76 87.888C269.205 87.984 268.613 88.064 267.984 88.128C267.355 88.1813 266.715 88.2293 266.064 88.272C265.413 88.304 264.784 88.3307 264.176 88.352C263.579 88.3627 263.024 88.368 262.512 88.368C262.288 88.368 262.027 88.368 261.728 88.368C261.44 88.3573 261.136 88.3467 260.816 88.336C260.496 88.3147 260.187 88.2933 259.888 88.272V87.072ZM272.112 90.944C271.973 90.976 271.819 91.024 271.648 91.088C271.488 91.1413 271.323 91.2 271.152 91.264C270.992 91.328 270.837 91.392 270.688 91.456C270.133 91.6693 269.488 91.9307 268.752 92.24C268.016 92.5493 267.264 92.9067 266.496 93.312C265.963 93.5787 265.493 93.8613 265.088 94.16C264.683 94.448 264.363 94.752 264.128 95.072C263.893 95.3813 263.776 95.7227 263.776 96.096C263.776 96.4053 263.845 96.656 263.984 96.848C264.133 97.04 264.341 97.1893 264.608 97.296C264.875 97.392 265.179 97.456 265.52 97.488C265.872 97.52 266.256 97.536 266.672 97.536C267.291 97.536 267.995 97.504 268.784 97.44C269.584 97.3653 270.336 97.2693 271.04 97.152L271.008 98.432C270.603 98.4853 270.144 98.5333 269.632 98.576C269.131 98.6187 268.619 98.6507 268.096 98.672C267.584 98.704 267.093 98.72 266.624 98.72C265.867 98.72 265.173 98.6507 264.544 98.512C263.925 98.3733 263.429 98.128 263.056 97.776C262.683 97.424 262.496 96.9227 262.496 96.272C262.496 95.792 262.608 95.3547 262.832 94.96C263.056 94.5547 263.355 94.1867 263.728 93.856C264.112 93.5253 264.533 93.2213 264.992 92.944C265.451 92.656 265.92 92.3947 266.4 92.16C266.912 91.8827 267.392 91.6427 267.84 91.44C268.299 91.2373 268.731 91.0507 269.136 90.88C269.541 90.7093 269.92 90.5387 270.272 90.368C270.507 90.2613 270.731 90.16 270.944 90.064C271.157 89.968 271.371 89.8613 271.584 89.744L272.112 90.944ZM280.384 90.704H289.168V93.536H288.048V91.68H281.472V93.536H280.384V90.704ZM285.504 92.752H286.64V97.568C286.64 97.76 286.661 97.8827 286.704 97.936C286.747 97.9893 286.853 98.016 287.024 98.016C287.077 98.016 287.173 98.016 287.312 98.016C287.461 98.016 287.611 98.016 287.76 98.016C287.909 98.016 288.016 98.016 288.08 98.016C288.197 98.016 288.283 97.968 288.336 97.872C288.4 97.776 288.443 97.5787 288.464 97.28C288.496 96.9707 288.517 96.512 288.528 95.904C288.613 95.968 288.715 96.032 288.832 96.096C288.949 96.1493 289.072 96.2027 289.2 96.256C289.328 96.2987 289.445 96.336 289.552 96.368C289.52 97.0827 289.456 97.6373 289.36 98.032C289.275 98.4373 289.141 98.7147 288.96 98.864C288.779 99.0133 288.528 99.088 288.208 99.088C288.155 99.088 288.064 99.088 287.936 99.088C287.808 99.088 287.669 99.088 287.52 99.088C287.381 99.088 287.248 99.088 287.12 99.088C287.003 99.088 286.917 99.088 286.864 99.088C286.501 99.088 286.219 99.04 286.016 98.944C285.824 98.8587 285.691 98.704 285.616 98.48C285.541 98.2667 285.504 97.9627 285.504 97.568V92.752ZM282.752 92.736H283.888C283.845 93.6 283.771 94.3787 283.664 95.072C283.557 95.7547 283.381 96.3627 283.136 96.896C282.891 97.4187 282.544 97.8773 282.096 98.272C281.659 98.6773 281.083 99.0187 280.368 99.296C280.325 99.2 280.261 99.0933 280.176 98.976C280.101 98.8587 280.016 98.7413 279.92 98.624C279.835 98.5173 279.749 98.4267 279.664 98.352C280.315 98.1173 280.837 97.8347 281.232 97.504C281.627 97.1733 281.925 96.784 282.128 96.336C282.341 95.8773 282.491 95.3547 282.576 94.768C282.661 94.1707 282.72 93.4933 282.752 92.736ZM280.448 86H289.104V87.008H280.448V86ZM280.976 88.512H288.624V89.52H280.976V88.512ZM284.096 84.544H285.28V89.04H284.096V84.544ZM275.296 89.408H279.616V90.352H275.296V89.408ZM275.392 85.12H279.568V86.08H275.392V85.12ZM275.296 91.536H279.616V92.496H275.296V91.536ZM274.608 87.216H280.064V88.224H274.608V87.216ZM275.856 93.696H279.632V98.352H275.856V97.36H278.608V94.688H275.856V93.696ZM275.28 93.696H276.304V99.104H275.28V93.696ZM293.568 86.272C293.771 86.2827 293.979 86.2933 294.192 86.304C294.416 86.3147 294.608 86.32 294.768 86.32C294.981 86.32 295.253 86.3147 295.584 86.304C295.925 86.2933 296.277 86.2773 296.64 86.256C297.003 86.2347 297.344 86.2187 297.664 86.208C297.984 86.1867 298.224 86.1707 298.384 86.16C298.544 86.1387 298.688 86.1173 298.816 86.096C298.955 86.064 299.077 86.0267 299.184 85.984L299.984 86.64C299.909 86.7253 299.835 86.8107 299.76 86.896C299.696 86.9813 299.632 87.072 299.568 87.168C299.397 87.4453 299.195 87.84 298.96 88.352C298.725 88.8533 298.475 89.4027 298.208 90C297.952 90.5867 297.696 91.152 297.44 91.696C297.28 92.0587 297.104 92.4533 296.912 92.88C296.731 93.296 296.544 93.7227 296.352 94.16C296.16 94.5867 295.968 94.9867 295.776 95.36C295.595 95.7333 295.419 96.0427 295.248 96.288C294.96 96.6933 294.656 96.9813 294.336 97.152C294.016 97.312 293.648 97.392 293.232 97.392C292.635 97.392 292.139 97.1947 291.744 96.8C291.349 96.4053 291.152 95.872 291.152 95.2C291.152 94.6027 291.285 94.048 291.552 93.536C291.829 93.0133 292.208 92.56 292.688 92.176C293.179 91.792 293.76 91.4933 294.432 91.28C295.115 91.0667 295.861 90.96 296.672 90.96C297.568 90.96 298.432 91.0667 299.264 91.28C300.107 91.4827 300.891 91.7493 301.616 92.08C302.352 92.4 303.019 92.7413 303.616 93.104C304.224 93.456 304.741 93.7867 305.168 94.096L304.576 95.472C304.107 95.0667 303.579 94.6667 302.992 94.272C302.405 93.8667 301.765 93.4987 301.072 93.168C300.379 92.8373 299.643 92.5707 298.864 92.368C298.096 92.1653 297.301 92.064 296.48 92.064C295.605 92.064 294.853 92.2133 294.224 92.512C293.605 92.8 293.131 93.1733 292.8 93.632C292.48 94.08 292.32 94.5493 292.32 95.04C292.32 95.392 292.416 95.664 292.608 95.856C292.811 96.0373 293.035 96.128 293.28 96.128C293.461 96.128 293.627 96.0853 293.776 96C293.925 95.9147 294.08 95.7707 294.24 95.568C294.411 95.344 294.581 95.072 294.752 94.752C294.923 94.432 295.093 94.0853 295.264 93.712C295.435 93.3387 295.6 92.96 295.76 92.576C295.92 92.192 296.08 91.8347 296.24 91.504C296.453 91.0347 296.667 90.5493 296.88 90.048C297.104 89.5467 297.323 89.0613 297.536 88.592C297.76 88.1227 297.963 87.696 298.144 87.312C297.984 87.3227 297.755 87.3333 297.456 87.344C297.168 87.3547 296.853 87.3707 296.512 87.392C296.171 87.4027 295.845 87.4187 295.536 87.44C295.237 87.4507 294.997 87.4613 294.816 87.472C294.645 87.4827 294.453 87.4987 294.24 87.52C294.027 87.5307 293.824 87.5467 293.632 87.568L293.568 86.272ZM303.568 89.776C303.515 90.9067 303.403 91.936 303.232 92.864C303.061 93.792 302.8 94.6293 302.448 95.376C302.096 96.1227 301.616 96.7947 301.008 97.392C300.4 97.9787 299.632 98.5013 298.704 98.96L297.648 98.08C298.587 97.6853 299.349 97.216 299.936 96.672C300.523 96.1173 300.976 95.5253 301.296 94.896C301.627 94.256 301.856 93.6107 301.984 92.96C302.123 92.3093 302.219 91.6907 302.272 91.104C302.283 90.8587 302.288 90.608 302.288 90.352C302.299 90.096 302.293 89.856 302.272 89.632L303.568 89.776ZM308.224 88.624H312.848V89.552H308.224V88.624ZM308.224 91.344H312.848V92.256H308.224V91.344ZM308.224 94.112H312.848V95.072H308.224V94.112ZM315.04 92.128H321.12V93.184H315.04V92.128ZM309.056 85.984H311.696V86.944H309.056V85.984ZM314 85.376H320.256V86.384H314V85.376ZM313.808 95.12H321.408V96.192H313.808V95.12ZM317.2 90.496H318.336V99.216H317.2V90.496ZM310.192 89.072H311.072V94.512H310.192V89.072ZM319.888 85.376H320.976C320.976 85.376 320.971 85.4293 320.96 85.536C320.96 85.6427 320.955 85.7387 320.944 85.824C320.912 86.7093 320.869 87.4293 320.816 87.984C320.763 88.5387 320.699 88.9653 320.624 89.264C320.549 89.5627 320.453 89.776 320.336 89.904C320.24 90.032 320.123 90.128 319.984 90.192C319.845 90.2453 319.675 90.2827 319.472 90.304C319.312 90.3253 319.077 90.336 318.768 90.336C318.459 90.3253 318.139 90.3093 317.808 90.288C317.797 90.1387 317.765 89.968 317.712 89.776C317.669 89.584 317.605 89.424 317.52 89.296C317.84 89.3173 318.133 89.3333 318.4 89.344C318.667 89.3547 318.853 89.36 318.96 89.36C319.077 89.36 319.173 89.3547 319.248 89.344C319.323 89.3227 319.387 89.28 319.44 89.216C319.504 89.1307 319.563 88.96 319.616 88.704C319.669 88.448 319.717 88.064 319.76 87.552C319.803 87.04 319.845 86.368 319.888 85.536V85.376ZM315.104 90.64L316.144 90.832C315.973 91.5787 315.755 92.2987 315.488 92.992C315.221 93.6747 314.917 94.256 314.576 94.736C314.512 94.6827 314.421 94.6293 314.304 94.576C314.187 94.512 314.069 94.4533 313.952 94.4C313.835 94.336 313.728 94.2827 313.632 94.24C313.984 93.7813 314.283 93.2373 314.528 92.608C314.773 91.968 314.965 91.312 315.104 90.64ZM309.024 84.544L310.128 84.784C309.925 85.5093 309.685 86.2133 309.408 86.896C309.131 87.5787 308.821 88.2187 308.48 88.816C308.149 89.4027 307.792 89.92 307.408 90.368C307.355 90.304 307.269 90.2293 307.152 90.144C307.045 90.048 306.933 89.9573 306.816 89.872C306.699 89.776 306.597 89.7013 306.512 89.648C307.077 89.04 307.573 88.288 308 87.392C308.437 86.4853 308.779 85.536 309.024 84.544ZM307.744 88.624H308.752V92.88C308.752 93.36 308.731 93.8827 308.688 94.448C308.656 95.0133 308.592 95.584 308.496 96.16C308.411 96.736 308.277 97.296 308.096 97.84C307.925 98.3733 307.701 98.864 307.424 99.312C307.36 99.248 307.275 99.1787 307.168 99.104C307.061 99.04 306.949 98.976 306.832 98.912C306.725 98.848 306.629 98.8 306.544 98.768C306.907 98.192 307.173 97.568 307.344 96.896C307.515 96.2133 307.621 95.5253 307.664 94.832C307.717 94.128 307.744 93.4773 307.744 92.88V88.624ZM312.512 88.624H313.536V97.968C313.536 98.256 313.493 98.4853 313.408 98.656C313.333 98.8373 313.195 98.976 312.992 99.072C312.789 99.1573 312.517 99.2107 312.176 99.232C311.835 99.2533 311.381 99.264 310.816 99.264C310.795 99.1253 310.747 98.9547 310.672 98.752C310.597 98.5493 310.523 98.3787 310.448 98.24C310.864 98.2507 311.232 98.256 311.552 98.256C311.883 98.256 312.101 98.2507 312.208 98.24C312.315 98.24 312.389 98.2187 312.432 98.176C312.485 98.1333 312.512 98.0587 312.512 97.952V88.624ZM316.288 85.696H317.392C317.296 86.432 317.141 87.12 316.928 87.76C316.715 88.4 316.389 88.976 315.952 89.488C315.525 89.9893 314.933 90.4053 314.176 90.736C314.112 90.608 314.016 90.464 313.888 90.304C313.76 90.144 313.632 90.016 313.504 89.92C314.165 89.6427 314.683 89.2907 315.056 88.864C315.429 88.4267 315.707 87.9413 315.888 87.408C316.08 86.864 316.213 86.2933 316.288 85.696ZM311.408 85.984H311.648L311.824 85.936L312.528 86.384C312.357 86.8853 312.139 87.408 311.872 87.952C311.605 88.4853 311.349 88.9387 311.104 89.312C311.008 89.2373 310.88 89.1573 310.72 89.072C310.571 88.976 310.437 88.9013 310.32 88.848C310.459 88.6133 310.597 88.3413 310.736 88.032C310.875 87.712 311.003 87.392 311.12 87.072C311.237 86.7413 311.333 86.448 311.408 86.192V85.984ZM333.264 86.192C333.093 86.32 332.901 86.48 332.688 86.672C332.475 86.8533 332.299 86.9973 332.16 87.104C331.883 87.3493 331.547 87.6373 331.152 87.968C330.757 88.288 330.341 88.6293 329.904 88.992C329.467 89.344 329.045 89.6853 328.64 90.016C328.235 90.336 327.883 90.624 327.584 90.88C327.264 91.1573 327.051 91.3867 326.944 91.568C326.837 91.7387 326.837 91.9147 326.944 92.096C327.061 92.2773 327.291 92.5173 327.632 92.816C327.931 93.0507 328.272 93.328 328.656 93.648C329.04 93.9573 329.445 94.2933 329.872 94.656C330.309 95.0187 330.752 95.392 331.2 95.776C331.648 96.16 332.08 96.5387 332.496 96.912C332.912 97.2853 333.285 97.6427 333.616 97.984L332.48 99.04C332.149 98.656 331.781 98.2667 331.376 97.872C331.099 97.584 330.752 97.248 330.336 96.864C329.92 96.48 329.472 96.08 328.992 95.664C328.523 95.248 328.053 94.848 327.584 94.464C327.125 94.0693 326.709 93.7173 326.336 93.408C325.824 92.9813 325.499 92.608 325.36 92.288C325.221 91.9573 325.248 91.632 325.44 91.312C325.632 90.992 325.968 90.6347 326.448 90.24C326.747 89.984 327.104 89.6853 327.52 89.344C327.947 89.0027 328.389 88.6453 328.848 88.272C329.307 87.888 329.739 87.52 330.144 87.168C330.56 86.8053 330.901 86.4853 331.168 86.208C331.328 86.048 331.493 85.8667 331.664 85.664C331.845 85.4613 331.984 85.2853 332.08 85.136L333.264 86.192ZM345.632 87.568H352.816V88.688H345.632V87.568ZM341.184 97.12H350.768V98.256H341.184V97.12ZM345.12 84.56H346.352V92.464H345.12V84.56ZM340.48 91.888H351.52V99.184H350.288V93.024H341.648V99.264H340.48V91.888ZM359.264 91.152L360.288 91.296C360.235 92.0427 360.155 92.7787 360.048 93.504C359.941 94.2293 359.808 94.9067 359.648 95.536C359.499 96.1547 359.307 96.7093 359.072 97.2C359.008 97.1467 358.923 97.088 358.816 97.024C358.72 96.9493 358.613 96.88 358.496 96.816C358.389 96.7413 358.288 96.6827 358.192 96.64C358.427 96.192 358.613 95.6747 358.752 95.088C358.891 94.5013 358.997 93.872 359.072 93.2C359.157 92.528 359.221 91.8453 359.264 91.152ZM358.848 88.08H364.848V89.2H358.848V88.08ZM361.264 84.784H362.4V99.04H361.264V84.784ZM363.168 91.36L364.112 91.184C364.24 91.6853 364.363 92.224 364.48 92.8C364.608 93.3653 364.715 93.92 364.8 94.464C364.896 95.008 364.96 95.4987 364.992 95.936L364.016 96.128C363.984 95.6907 363.925 95.2 363.84 94.656C363.755 94.1013 363.653 93.5413 363.536 92.976C363.429 92.4 363.307 91.8613 363.168 91.36ZM365.312 85.504H369.136V86.576H365.312V85.504ZM364.928 89.92H369.36V91.008H364.928V89.92ZM362.848 85.344L363.664 84.96C363.941 85.2907 364.208 85.664 364.464 86.08C364.731 86.4853 364.923 86.8373 365.04 87.136L364.192 87.568C364.075 87.2693 363.888 86.912 363.632 86.496C363.376 86.0693 363.115 85.6853 362.848 85.344ZM366.768 90.24H367.92V97.856C367.92 98.1867 367.877 98.4427 367.792 98.624C367.717 98.816 367.563 98.9653 367.328 99.072C367.104 99.1573 366.805 99.2107 366.432 99.232C366.059 99.264 365.589 99.28 365.024 99.28C365.013 99.12 364.971 98.928 364.896 98.704C364.832 98.48 364.763 98.2827 364.688 98.112C365.093 98.1227 365.461 98.128 365.792 98.128C366.133 98.1387 366.363 98.1387 366.48 98.128C366.597 98.1173 366.672 98.0907 366.704 98.048C366.747 98.016 366.768 97.952 366.768 97.856V90.24ZM357.344 84.56L358.448 84.96C358.192 85.3973 357.883 85.8453 357.52 86.304C357.157 86.752 356.773 87.1787 356.368 87.584C355.973 87.9893 355.568 88.352 355.152 88.672C355.109 88.5973 355.045 88.5067 354.96 88.4C354.885 88.2827 354.805 88.1707 354.72 88.064C354.635 87.9467 354.56 87.8507 354.496 87.776C354.859 87.4987 355.221 87.184 355.584 86.832C355.957 86.4693 356.299 86.0907 356.608 85.696C356.917 85.3013 357.163 84.9227 357.344 84.56ZM356.4 90.944L357.36 89.968L357.504 90.016V99.296H356.4V90.944ZM357.824 87.776L358.896 88.144C358.587 88.8053 358.219 89.4613 357.792 90.112C357.365 90.752 356.912 91.3547 356.432 91.92C355.952 92.4853 355.467 92.9867 354.976 93.424C354.933 93.3387 354.869 93.232 354.784 93.104C354.699 92.9653 354.608 92.832 354.512 92.704C354.416 92.5653 354.331 92.4587 354.256 92.384C354.949 91.8187 355.616 91.1307 356.256 90.32C356.896 89.5093 357.419 88.6613 357.824 87.776Z" fill="#4A4A4A"/>
<path d="M84.892 42.368C82.396 42.56 81.916 38.48 84.988 38.24C85.9 38.144 86.86 38.096 87.916 38C87.772 37.904 87.676 37.76 87.58 37.568C87.1 36.8 86.332 35.168 85.756 33.824C84.7 31.376 88.396 30.128 89.308 32.336C89.884 33.632 90.268 34.496 90.892 35.648C91.324 36.464 91.132 37.28 90.604 37.808C92.188 37.712 93.868 37.616 95.5 37.52C94.732 37.04 94.252 36.128 94.78 35.168C95.404 33.968 95.692 33.056 96.172 31.76C96.46 30.944 97.18 30.608 97.852 30.608C99.148 30.608 100.492 31.712 99.868 33.2C99.196 34.736 98.668 36.128 98.236 36.944C98.14 37.136 98.044 37.28 97.9 37.424C99.34 37.328 100.684 37.328 101.884 37.28C104.284 37.232 104.908 41.456 101.836 41.552C96.988 41.696 90.076 41.984 84.892 42.368ZM75.1 39.92C73.324 38.864 72.364 38.096 70.828 36.8C68.764 35.072 71.356 32.144 73.372 33.872C74.908 35.216 75.676 35.552 77.212 36.56C79.084 37.76 77.356 41.264 75.1 39.92ZM90.364 61.856C88.252 64.4 85.276 61.52 87.004 59.408C88.444 57.68 89.356 56.144 89.932 54.608C89.836 54.656 89.788 54.656 89.692 54.656C85.564 55.184 83.548 53.888 83.548 51.296C83.548 49.184 83.836 48.032 84.172 46.16C84.7 43.28 88.588 44.144 88.204 46.592C87.916 48.56 87.676 49.76 87.676 51.152C88.876 51.008 89.884 50.912 90.796 50.816C90.988 48.944 90.892 47.12 90.892 45.056C90.892 41.984 94.876 42.416 95.02 44.816C95.068 46.688 95.068 48.464 94.924 50.192C95.932 50 97.036 49.808 98.332 49.568C98.236 48.272 98.188 47.264 98.14 45.872C98.092 43.472 101.98 42.944 102.172 45.824C102.316 47.888 102.412 49.376 102.892 53.504C103.132 55.52 99.148 56.144 98.812 53.552L98.764 53.312C96.988 53.6 95.548 53.84 94.3 54.032C93.58 56.864 92.38 59.456 90.364 61.856ZM104.812 66.224C99.244 67.712 94.396 68.288 90.124 68.288C81.724 68.288 75.724 65.936 71.164 63.248C69.34 62.192 70.3 58.976 72.172 59.36C73.18 58.4 74.332 57.152 74.332 56.096C74.332 54.464 72.364 53.072 72.364 51.584C72.364 50.288 72.796 49.376 73.66 47.936C72.508 48.032 71.452 48.224 70.252 48.464C68.956 48.704 68.14 47.6 68.14 46.448C68.14 45.536 68.668 44.576 69.916 44.336C71.932 43.904 73.564 43.568 76.3 43.52C79.084 43.472 80.14 45.68 78.556 47.84C77.02 49.76 76.636 50.384 76.636 51.536C76.636 52.976 78.508 54.368 78.508 56.48C78.508 57.776 77.26 59.264 75.82 60.896C83.212 64.88 92.716 65.36 104.044 62.192C105.676 61.712 106.636 62.816 106.636 64.016C106.636 64.928 106.06 65.888 104.812 66.224ZM117.1 35.888C114.652 36.032 114.076 32.096 117.1 31.904C118.588 31.808 120.124 31.712 121.612 31.664C121.66 31.328 121.66 30.944 121.708 30.512C121.804 29.456 122.812 28.88 123.772 28.88C124.828 28.88 125.884 29.552 125.74 31.04L125.692 31.52C127.468 31.472 129.244 31.424 130.972 31.424L131.116 30.416C131.404 28.4 135.532 28.496 135.1 31.136L135.052 31.424C136.396 31.424 137.644 31.472 138.892 31.52C141.676 31.616 141.58 35.552 138.796 35.456C137.452 35.408 136.06 35.36 134.62 35.36V35.792C134.524 38 130.54 38.24 130.636 35.504V35.36L125.548 35.504V35.84C125.596 38.048 121.42 38.528 121.468 35.792V35.648C120.028 35.744 118.54 35.792 117.1 35.888ZM118.06 48.224C117.196 48.272 116.236 47.744 116.14 46.64C115.9 44.384 115.708 43.088 115.708 40.544C115.708 38.96 117.724 38.48 118.828 39.152C122.86 38.24 128.62 37.76 133.852 37.76C141.292 37.76 142.204 39.488 140.524 46.544C140.14 48.176 137.884 48.416 136.972 47.504C128.38 47.696 123.388 47.888 118.06 48.224ZM136.588 41.504C135.628 41.408 134.572 41.36 133.516 41.36C133.516 42.272 133.468 43.184 133.372 44.24C134.572 44.192 135.82 44.192 137.116 44.144H137.212C137.356 43.52 137.452 43.088 137.5 42.608C137.5 41.936 137.404 41.6 136.588 41.504ZM130.108 41.456C129.34 41.456 127.948 41.552 126.604 41.648C126.604 42.656 126.652 43.52 126.7 44.432C127.804 44.432 128.908 44.384 130.012 44.336C130.06 43.376 130.06 42.416 130.108 41.456ZM119.692 44.816C120.94 44.72 122.14 44.672 123.34 44.624C123.292 43.664 123.244 42.848 123.244 41.936C121.996 42.08 120.748 42.272 119.548 42.512L119.692 44.816ZM141.292 49.232C143.404 49.328 144.556 50.48 144.556 52.4C144.556 52.784 144.508 53.168 144.412 53.6C143.932 55.952 143.644 57.152 143.116 58.64C142.108 61.424 138.556 59.792 139.18 57.776C139.66 56.288 140.092 54.416 140.332 52.928C135.484 52.832 131.548 52.784 127.468 52.976C127.66 53.36 127.612 53.84 127.324 54.368L127.084 54.752C128.14 54.704 129.004 54.656 129.58 54.656C136.348 54.56 137.452 56.48 135.82 59.6C134.14 62.816 129.82 67.04 125.884 69.296C125.5 69.536 125.116 69.632 124.78 69.632C123.148 69.632 122.092 67.472 123.964 66.224C124.78 65.648 125.596 65.072 126.364 64.4C125.836 63.968 125.26 63.488 124.348 62.624C122.524 60.944 125.116 58.592 126.7 60.032C127.708 60.992 128.332 61.568 129.004 62.048C130.012 60.992 131.02 59.84 131.932 58.544C130.252 58.352 128.476 58.304 126.508 58.352C125.884 58.352 125.452 58.16 125.164 57.824C124.108 59.312 122.956 60.752 121.276 62.384C119.74 63.872 116.908 61.712 118.396 60.08C120.988 57.248 122.188 55.76 123.724 53.168C122.236 53.264 120.748 53.408 119.116 53.552C116.476 53.792 115.948 50.048 118.636 49.808C126.988 49.04 133.996 48.944 141.292 49.232ZM116.044 51.008C116.092 53.216 116.044 55.424 116.236 57.824C116.428 60.416 112.444 60.704 112.204 58.016C112.06 56.288 111.964 54.272 111.964 52.16C111.964 51.68 111.964 51.248 111.964 50.816C112.012 48.368 115.996 48.656 116.044 51.008ZM175.18 52.544C173.452 53.312 172.348 52.688 171.916 51.728C171.436 50.672 171.676 49.232 172.78 48.704C177.34 46.544 179.308 43.088 179.308 41.36C179.308 40.544 178.3 40.4 172.924 40.64C167.452 40.736 159.532 41.936 154.732 42.848C153.292 43.136 152.476 41.696 152.476 40.352C152.476 39.344 152.908 38.384 153.964 38.192C161.308 36.944 168.124 35.936 176.38 35.936C181.324 35.936 184.06 36.8 184.06 40.544C184.06 45.248 179.884 50.384 175.18 52.544ZM167.692 64.976C167.404 65.792 166.54 66.176 165.628 66.176C164.188 66.176 162.652 65.216 163.324 63.536C165.196 58.592 165.244 56.144 164.908 46.784C164.812 44.048 169.42 43.904 169.564 46.592C170.092 56.096 169.756 58.832 167.692 64.976ZM208.396 64.64C207.964 65.648 207.148 66.08 206.332 66.08C204.892 66.08 203.452 64.64 204.268 62.816C207.004 57.392 208.348 52.208 208.684 46.304C205.228 46.544 201.244 46.928 196.492 47.456C194.764 47.648 193.804 46.4 193.804 45.152C193.804 44.144 194.476 43.136 195.868 42.896C200.188 42.416 204.508 42.032 208.732 41.696C208.684 39.968 208.54 38.192 208.348 36.272C207.964 34.496 209.356 33.536 210.796 33.536C211.756 33.536 212.764 34.064 213.052 35.168C213.244 37.376 213.388 39.44 213.436 41.408C216.748 41.264 220.012 41.168 223.132 41.168C224.572 41.168 225.292 42.224 225.292 43.328C225.292 44.576 224.428 45.872 222.796 45.824C220.012 45.728 216.988 45.776 213.388 45.968C213.052 52.832 211.564 58.592 208.396 64.64ZM254.62 64.352C254.044 65.024 253.372 65.312 252.748 65.312C251.068 65.312 249.628 63.344 251.02 61.568C254.38 57.296 255.964 55.04 258.364 50.768C259.516 48.704 259.852 47.984 257.26 47.984C250.3 47.984 244.252 48.272 238.012 48.752C236.188 48.896 235.372 47.792 235.372 46.64C235.372 45.536 236.14 44.336 237.484 44.192C240.94 43.808 248.716 43.328 257.5 43.328C261.772 43.328 264.556 44.768 264.556 47.6C264.556 48.608 264.22 49.712 263.548 51.008C260.908 56.096 258.508 59.744 254.62 64.352ZM241.516 38.144C240.22 38.096 239.644 37.04 239.644 35.936C239.644 34.688 240.316 33.536 241.66 33.536C241.708 33.536 241.756 33.536 241.804 33.536C246.076 33.776 252.748 33.584 257.356 33.296C259.9 33.296 260.236 37.568 257.5 37.808C252.268 38.24 246.412 38.336 241.516 38.144ZM280.108 52.88C278.572 53.792 276.988 52.064 276.988 50.48C276.988 49.856 277.276 49.232 277.948 48.8C286.06 43.904 291.244 40.064 298.204 34.208C298.732 33.776 299.26 33.584 299.788 33.584C301.036 33.584 302.044 34.784 302.044 36.032C302.044 36.56 301.804 37.28 301.18 37.76C293.212 44.24 289.228 47.456 280.108 52.88ZM290.428 64.064C290.188 60.32 289.996 53.696 289.852 49.424C289.804 47.888 290.908 47.216 292.108 47.216C293.356 47.216 294.604 47.936 294.652 49.28C294.7 54.128 295.036 59.84 295.276 63.872C295.372 65.36 294.124 66.128 292.876 66.128C291.724 66.128 290.524 65.456 290.428 64.064ZM323.548 64.4C323.116 64.928 322.492 65.168 321.916 65.168C320.188 65.168 318.46 63.2 320.092 61.328C326.956 53.216 329.452 49.616 334.204 42.896C335.02 41.744 335.356 41.024 335.356 40.592C335.356 40.208 335.02 40.064 334.492 40.064C329.98 40.064 323.98 40.976 319.612 41.84C317.98 42.176 317.164 40.88 317.164 39.584C317.164 38.624 317.692 37.616 318.796 37.424C324.796 36.416 331.276 35.696 336.94 35.6C336.988 35.6 337.084 35.6 337.132 35.6C342.268 35.6 342.556 39.152 339.676 43.232C333.82 51.488 329.452 57.392 323.548 64.4ZM342.652 48.944C342.604 47.648 342.316 46.016 342.124 44.672C341.932 43.616 342.844 42.8 344.092 42.8C345.004 42.8 345.82 43.232 345.964 44.144C346.252 45.872 346.444 47.216 346.444 48.416C346.444 49.52 345.292 50.192 344.188 50.192C343.372 50.192 342.7 49.808 342.652 48.944ZM348.652 48.176C348.508 47.024 348.22 44.72 348.172 43.808C348.076 41.888 351.724 41.168 352.06 43.568C352.252 44.864 352.444 46.64 352.444 47.552C352.444 48.656 351.244 49.328 350.236 49.328C349.468 49.328 348.748 48.944 348.652 48.176ZM344.092 64.304C339.676 61.472 337.564 59.504 334.684 56.096C334.396 55.76 334.252 55.328 334.252 54.944C334.252 53.696 335.404 52.448 336.652 52.448C337.228 52.448 337.708 52.64 338.188 53.216C340.54 56 342.652 57.632 346.78 60.608C347.308 60.992 347.548 61.52 347.548 62.096C347.548 63.344 346.444 64.64 345.148 64.64C344.86 64.64 344.476 64.544 344.092 64.304Z" fill="white"/>
</svg>
